HIERARCHY
ROOT Hips
{
  OFFSET 267.745 86.9975 -272.335
  CHANNELS 6 Xposition Yposition Zposition Zrotation Xrotation Yrotation
  JOINT LeftUpLeg
  {
    OFFSET 8.64259 1.95398 -2.38835
    CHANNELS 3 Zrotation Xrotation Yrotation
    JOINT LeftLeg
    {
      OFFSET 43.7702 0 0
      CHANNELS 3 Zrotation Xrotation Yrotation
      JOINT LeftFoot
      {
        OFFSET 40.6238 0 0
        CHANNELS 3 Zrotation Xrotation Yrotation
        JOINT LeftToeBase
        {
          OFFSET 12.7242 0 0
          CHANNELS 3 Zrotation Xrotation Yrotation
          End Site
          {
            OFFSET 0 0 0
          }
        }
      }
    }
  }
  JOINT RightUpLeg
  {
    OFFSET -8.2249 1.95398 -2.59336
    CHANNELS 3 Zrotation Xrotation Yrotation
    JOINT RightLeg
    {
      OFFSET 43.5653 0 0
      CHANNELS 3 Zrotation Xrotation Yrotation
      JOINT RightFoot
      {
        OFFSET 40.6238 0 0
        CHANNELS 3 Zrotation Xrotation Yrotation
        JOINT RightToeBase
        {
          OFFSET 12.7242 0 0
          CHANNELS 3 Zrotation Xrotation Yrotation
          End Site
          {
            OFFSET 0 0 0
          }
        }
      }
    }
  }
  JOINT Spine
  {
    OFFSET 0.165834 0.87714 6.61349
    CHANNELS 3 Zrotation Xrotation Yrotation
    JOINT Spine1
    {
      OFFSET 7.38963 1.71661e-005 0
      CHANNELS 3 Zrotation Xrotation Yrotation
      JOINT Spine2
      {
        OFFSET 11.9445 1.14441e-005 0
        CHANNELS 3 Zrotation Xrotation Yrotation
        JOINT Spine3
        {
          OFFSET 14.7254 4.19617e-005 0
          CHANNELS 3 Zrotation Xrotation Yrotation
          JOINT Spine4
          {
            OFFSET 10.9679 0 0
            CHANNELS 3 Zrotation Xrotation Yrotation
            JOINT RightShoulder
            {
              OFFSET 2.46616 -1.6653 3.69651
              CHANNELS 3 Zrotation Xrotation Yrotation
              JOINT RightArm
              {
                OFFSET 13.0012 0 0
                CHANNELS 3 Zrotation Xrotation Yrotation
                JOINT RightForeArm
                {
                  OFFSET 28.7848 1.52588e-005 0
                  CHANNELS 3 Zrotation Xrotation Yrotation
                  JOINT RightHand
                  {
                    OFFSET 26.5688 1.52588e-005 0
                    CHANNELS 3 Zrotation Xrotation Yrotation
                    End Site
                    {
                      OFFSET 0 0 0
                    }
                  }
                }
              }
            }
            JOINT LeftShoulder
            {
              OFFSET 2.38034 -1.29275 -3.7523
              CHANNELS 3 Zrotation Xrotation Yrotation
              JOINT LeftArm
              {
                OFFSET 16.3182 6.10352e-005 0
                CHANNELS 3 Zrotation Xrotation Yrotation
                JOINT LeftForeArm
                {
                  OFFSET 27.0901 0 0
                  CHANNELS 3 Zrotation Xrotation Yrotation
                  JOINT LeftHand
                  {
                    OFFSET 24.5451 1.52588e-005 0
                    CHANNELS 3 Zrotation Xrotation Yrotation
                    End Site
                    {
                      OFFSET 0 0 0
                    }
                  }
                }
              }
            }
            JOINT Neck
            {
              OFFSET 5.0226 -0.0266342 0
              CHANNELS 3 Zrotation Xrotation Yrotation
              JOINT Head
              {
                OFFSET 6.69364 2.86102e-005 0
                CHANNELS 3 Zrotation Xrotation Yrotation
                End Site
                {
                  OFFSET 0 0 0
                }
              }
            }
          }
        }
      }
    }
  }
}
MOTION
Frames:	13
Frame Time:	0.0416667
2.12478 96.6994 -16.0451 112.15 -81.5725 110.745 -174.455 -0.688053 91.3523 -12.9426 6.44841 2.6915 67.002 4.14395 -3.56802 30.822 -0.529722 3.02086 174.232 -0.398806 88.4878 -16.0334 -3.02785 0.310973 71.6056 -6.93707 1.01553 26.7212 0.557139 -0.401628 -0.324915 7.03168 -90.802 12.8016 -1.02901 -1.48034 1.13031 -1.09316 -1.43364 -21.3992 -0.536609 -1.7211 -1.38659 -0.536617 -1.72112 101.815 -51.1302 -82.7072 27.4064 -9.17693 -6.78193 2.86818 -13.8719 -11.7168 -12.7196 -0.754453 1.76076 -80.109 -52.5662 93.5303 -34.6204 -1.2316 -17.9432 -1.42676 38.1893 -1.05645 -1.05974 -0.127165 -7.56669 5.61627 -1.79644 3.53588 -17.1855 -1.65264 -6.82205 
2.33596 96.6821 -16.0761 111.918 -80.8463 110.109 -174.549 -0.969723 90.9999 -12.6895 7.24103 2.51594 66.6165 4.09212 -3.3247 31.2868 -0.591443 3.25159 173.923 -0.388663 88.0022 -16.4059 -3.1717 0.382408 71.1728 -6.99117 -0.010976 28.1285 0.162446 -0.0066706 -0.372938 7.00533 -90.9755 12.8506 -1.20775 -1.80541 1.17906 -1.28603 -1.75054 -21.3475 -0.609445 -2.08481 -1.3349 -0.609451 -2.08481 101.813 -51.6077 -82.7073 26.1482 -9.24177 -6.57173 3.04022 -12.9776 -12.271 -14.331 -0.8884 2.06326 -80.4229 -52.2653 93.0535 -35.4845 -1.56644 -17.4823 -1.02366 38.0864 -1.23129 -0.898041 -0.139278 -8.15678 6.02035 -1.78416 3.23562 -17.5571 -1.59244 -6.65021 
2.37022 96.6937 -16.0947 110.823 -80.2048 108.594 -174.715 -1.15363 90.6419 -12.2906 7.61803 2.4421 66.4367 4.05476 -3.48885 31.0615 -0.55375 3.05807 173.743 -0.420503 87.6031 -16.5875 -2.77037 0.31308 71.3925 -6.89473 0.26431 27.8752 0.272487 -0.471536 -0.403784 6.95829 -91.1872 12.9389 -1.37114 -2.20733 1.26691 -1.46694 -2.14488 -21.2549 -0.644598 -2.51717 -1.24229 -0.644605 -2.51717 101.913 -51.4344 -82.5561 25.4147 -8.55541 -6.92262 3.00216 -13.6684 -11.8142 -14.4945 -0.936081 2.36356 -80.6324 -52.0785 92.7337 -36.1718 -1.2913 -17.3869 -1.32505 38.2906 -0.856971 -0.778047 -0.13641 -7.69809 6.62765 -1.82369 2.82304 -18.0018 -1.63017 -5.91436 
2.2069 96.7079 -16.126 110.411 -79.8079 107.621 -175.001 -1.43112 90.211 -11.7552 7.47628 2.42709 66.173 4.02908 -3.82345 30.801 -0.507963 2.81914 173.61 -0.115572 87.17 -17.3215 -1.76228 0.150325 72.0867 -6.53005 1.41554 27.2791 0.404544 -0.294028 -0.359131 6.96523 -91.3878 12.9206 -1.37856 -2.60887 1.2479 -1.49201 -2.54573 -21.2676 -0.531135 -2.90232 -1.25493 -0.531131 -2.90233 102.295 -51.1362 -81.9692 24.4105 -8.48503 -7.83251 3.70099 -11.999 -11.1848 -15.3576 -0.844135 1.22774 -81.0003 -53.0048 92.2397 -35.7657 -0.991474 -18.2426 -1.72499 39.4247 -0.473874 -1.19498 -0.123593 -7.61004 7.39963 -2.12118 2.92724 -18.3752 -1.88247 -6.39292 
2.03885 96.6651 -16.1438 111.859 -79.2477 108.339 -175.55 -2.03232 89.5365 -11.4121 7.56083 2.53719 65.9847 4.39106 -3.64264 30.9678 -0.544841 3.048 173.167 -0.00534731 86.4173 -18.3946 -1.21876 0.213328 72.8818 -6.29298 2.18402 27.0973 0.407122 0.114598 -0.409196 6.96894 -91.5231 12.908 -1.54263 -2.85938 1.235 -1.66693 -2.78879 -21.2766 -0.612454 -3.19047 -1.26398 -0.612447 -3.19047 102.103 -50.8775 -82.2639 23.8695 -8.57148 -7.75306 3.96122 -11.4754 -11.0563 -15.962 -0.938999 1.66948 -81.0662 -53.2886 92.158 -35.8434 -1.00901 -18.108 -1.51492 38.6946 -0.711489 -1.3313 -0.115549 -7.12257 7.46708 -2.03937 3.30666 -18.6209 -1.7722 -7.13207 
1.79436 96.6235 -16.0724 114.299 -79.2324 110.57 -175.541 -2.32091 89.5492 -11.7112 7.04078 2.55741 66.0686 4.52324 -4.09367 31.3016 -0.60088 3.33863 173.051 -0.0599354 86.2667 -19.1199 -1.68121 0.254745 73.0979 -6.22227 2.16548 27.0271 0.459071 -0.211036 -0.411519 6.94273 -91.7011 12.9546 -1.63316 -3.20375 1.28092 -1.77253 -3.12886 -21.2243 -0.5955 -3.54603 -1.21162 -0.595497 -3.54602 102.033 -50.5653 -82.3732 23.5872 -8.68054 -7.13679 4.05802 -11.292 -11.3452 -16.9373 -1.11257 2.47122 -81.0709 -52.5189 92.1079 -36.9923 -0.791551 -17.3284 -1.00882 38.8076 -1.51903 -1.44635 -0.118066 -7.74499 7.07907 -2.11044 2.44625 -18.0728 -1.85547 -5.81473 
1.442 96.5925 -16.0189 115.324 -78.8834 111.2 -175.676 -2.58311 89.4437 -11.7689 6.92864 2.55714 65.9524 4.65105 -4.46549 31.5123 -0.64183 3.59049 172.956 -0.212969 86.1267 -19.5931 -1.7756 0.22994 73.4855 -6.45763 1.97437 26.9668 0.512066 -0.554626 -0.455587 6.87672 -91.8485 13.0801 -1.7931 -3.47705 1.40592 -1.9443 -3.39489 -21.094 -0.666103 -3.85462 -1.08135 -0.6661 -3.85463 102.601 -50.5627 -81.4924 22.678 -8.65887 -6.90175 4.24461 -10.8493 -11.3062 -17.1514 -1.1182 2.41492 -81.4391 -51.9583 91.5297 -38.2323 -0.775467 -16.4942 -0.831478 39.2157 -1.65746 -2.13047 -0.0962816 -7.76933 6.68778 -2.17884 2.11106 -18.2907 -1.85939 -5.65295 
1.07852 96.4891 -15.9212 115.802 -78.5477 111.398 -176.101 -2.39311 89.3091 -12.5404 6.28208 2.69056 66.2003 5.04397 -4.95411 32.2049 -0.745056 4.14573 172.894 -0.0887737 86.0527 -20.4803 -1.25602 0.236212 74.2775 -6.29884 2.64592 26.4625 0.680611 -0.917152 -0.532717 6.8462 -92.002 13.1335 -2.0209 -3.75589 1.459 -2.18412 -3.66347 -21.0356 -0.799804 -4.18883 -1.02291 -0.799804 -4.18885 102.733 -50.3806 -81.2861 21.619 -8.38678 -7.11461 4.6454 -9.9838 -10.7317 -17.857 -1.10265 1.99277 -81.3998 -51.7753 91.5765 -38.8609 -0.316223 -16.5921 -0.962633 39.5216 -1.69929 -2.59467 -0.0832744 -8.20399 7.21443 -2.13603 1.83939 -18.9233 -1.69554 -5.97416 
0.698417 96.3504 -15.747 119.06 -78.9019 114.783 -176.303 -2.15329 89.5376 -14.1634 5.42013 2.84851 66.702 5.63236 -4.78902 33.4089 -0.856954 4.42184 172.931 -0.32546 86.3283 -21.1166 -1.49954 0.274896 75.0183 -6.78744 2.64831 26.0253 0.736015 -0.422668 -0.553583 6.83941 -92.1425 13.1404 -2.13004 -4.02326 1.46527 -2.3049 -3.92582 -21.0231 -0.823802 -4.47649 -1.01043 -0.823786 -4.47649 102.822 -51.0093 -81.1568 19.6718 -8.558 -6.65881 4.73638 -8.85069 -11.6128 -17.4132 -1.17151 2.64872 -81.3318 -51.2783 91.6471 -39.2156 0.126523 -16.5678 -0.501883 40.0803 -2.5934 -1.93033 -0.104895 -8.09145 7.03024 -2.10343 0.662492 -18.9608 -1.47309 -5.59144 
0.368456 96.176 -15.4844 121.954 -79.3676 117.732 -176.297 -2.04617 89.7866 -15.3195 4.86889 2.7092 67.2546 6.54002 -4.07096 34.3186 -0.953353 4.87268 172.854 -0.218101 86.3883 -22.0987 -1.76495 0.404982 75.8308 -6.9307 3.10887 25.4925 0.814219 0.0469144 -0.576486 6.77563 -92.2119 13.2641 -2.21091 -4.14986 1.58872 -2.39126 -4.04874 -20.8967 -0.863027 -4.62143 -0.884053 -0.863027 -4.62144 102.934 -51.2208 -80.9859 18.8575 -7.89462 -6.27615 4.82856 -8.26804 -11.4869 -17.5484 -1.18976 2.70891 -81.2639 -50.7939 91.7199 -39.6577 -0.153123 -16.6795 -0.246012 41.2246 -2.55617 -2.86084 -0.0723686 -8.75717 6.74388 -2.02061 -0.340579 -19.2516 -1.24504 -5.10602 
-0.0130482 95.9369 -15.3976 122.217 -78.8822 118.582 -176.599 -0.988415 90.4407 -17.8888 5.16638 2.92294 67.9321 7.40726 -3.3043 35.6429 -1.10103 5.88276 172.934 -0.421366 87.1436 -22.7048 -1.29129 0.684876 76.5224 -7.02837 3.50421 25.5083 0.942383 -1.02277 -0.729493 6.68832 -92.2708 13.4322 -2.54581 -4.22247 1.75727 -2.72902 -4.10656 -20.7286 -1.16077 -4.79107 -0.715959 -1.16076 -4.79108 102.835 -51.5227 -81.143 18.3685 -7.16778 -6.06278 5.28581 -7.03691 -10.5882 -17.5043 -1.11481 2.22703 -81.1493 -50.084 91.8499 -40.3895 -0.191094 -16.5403 0.292514 41.2252 -2.96129 -2.09181 -0.100827 -9.43206 6.34069 -2.04944 -2.52836 -19.0337 -1.1016 -3.23222 
-0.578007 95.8291 -15.0463 132.514 -80.4523 129.154 -175.774 -1.83261 91.015 -18.454 3.53213 2.75827 68.9931 8.05175 -3.56904 35.366 -1.17118 7.33907 173.095 -0.7486 87.4539 -23.2852 -2.90729 0.66529 76.9455 -7.70636 3.25874 25.317 0.86687 -0.0167508 -0.6529 6.64816 -92.2471 13.5157 -2.38379 -4.19416 1.84051 -2.56592 -4.08541 -20.6449 -1.01467 -4.71551 -0.632222 -1.01468 -4.71552 102.389 -52.1109 -81.8278 17.7385 -7.00857 -5.38456 5.62517 -6.55532 -9.90232 -18.0285 -1.18214 2.4507 -81.1124 -49.799 91.8885 -40.4874 0.402894 -15.6314 0.773867 40.7704 -4.31075 -2.63029 -0.0953381 -5.57044 5.08674 -1.7013 -3.49909 -18.9036 -0.675259 -2.79535 
-1.05729 95.818 -14.8552 139.583 -81.6186 136.74 -175.069 -2.1313 91.6961 -18.382 3.01068 2.66891 69.2051 8.35658 -3.1639 35.9014 -1.23452 8.06654 173.265 -0.8026 87.9576 -23.1461 -3.9136 0.836541 76.9794 -7.82932 3.21806 24.9862 0.906876 0.318282 -0.576114 6.6367 -92.2008 13.5427 -2.20952 -4.12308 1.8674 -2.38869 -4.02205 -20.6188 -0.869714 -4.59549 -0.606119 -0.869718 -4.5955 102.841 -52.2943 -81.144 17.9139 -7.17863 -5.86895 6.06142 -5.4131 -10.2852 -19.5646 -1.64938 4.60813 -81.1564 -50.2579 91.8488 -40.126 0.161461 -16.1502 0.171043 39.8733 -3.39645 -3.52756 -0.069741 -6.43123 5.27997 -1.62601 -3.49324 -18.9668 -0.5303 -3.25052 
